<?xml version="1.0" encoding="UTF-8" standalone="no"?>
<svg width="500" height="400" viewBox="0 0 500 400" xmlns="http://www.w3.org/2000/svg">
  <style>
    .code-bg { fill: #1e1e3f; rx: 10; ry: 10; }
    .line-number { font-family: 'Consolas', monospace; font-size: 14px; fill: #565869; }
    .comment { font-family: 'Consolas', monospace; font-size: 14px; fill: #b362ff; }
    .keyword { font-family: 'Consolas', monospace; font-size: 14px; fill: #ff9d00; }
    .string { font-family: 'Consolas', monospace; font-size: 14px; fill: #ff628c; }
    .function { font-family: 'Consolas', monospace; font-size: 14px; fill: #fad000; }
    .variable { font-family: 'Consolas', monospace; font-size: 14px; fill: #9effff; }
    .parameter { font-family: 'Consolas', monospace; font-size: 14px; fill: #ff9d00; }
    .operator { font-family: 'Consolas', monospace; font-size: 14px; fill: #ff628c; }
    .property { font-family: 'Consolas', monospace; font-size: 14px; fill: #80ffbb; }
    .normal { font-family: 'Consolas', monospace; font-size: 14px; fill: #e1efff; }
  </style>

  <!-- Code Background -->
  <rect width="500" height="400" class="code-bg" />

  <!-- Line 1 -->
  <text x="20" y="30" class="line-number">1</text>
  <text x="50" y="30" class="comment">// Importing AI agent libraries</text>

  <!-- Line 2 -->
  <text x="20" y="55" class="line-number">2</text>
  <text x="50" y="55" class="keyword">import</text>
  <text x="100" y="55" class="normal">{ </text>
  <text x="110" y="55" class="variable">OpenAI</text>
  <text x="165" y="55" class="normal">, </text>
  <text x="175" y="55" class="variable">LangChain</text>
  <text x="250" y="55" class="normal"> } </text>
  <text x="265" y="55" class="keyword">from</text>
  <text x="305" y="55" class="string">'ai-agents'</text>
  <text x="380" y="55" class="normal">;</text>

  <!-- Line 3 -->
  <text x="20" y="80" class="line-number">3</text>
  <text x="50" y="80" class="keyword">import</text>
  <text x="100" y="80" class="variable">AgentExecutor</text>
  <text x="205" y="80" class="keyword">from</text>
  <text x="245" y="80" class="string">'langchain/agents'</text>
  <text x="380" y="80" class="normal">;</text>

  <!-- Line 4 -->
  <text x="20" y="105" class="line-number">4</text>

  <!-- Line 5 -->
  <text x="20" y="130" class="line-number">5</text>
  <text x="50" y="130" class="comment">// Define AI agent with tools</text>

  <!-- Line 6 -->
  <text x="20" y="155" class="line-number">6</text>
  <text x="50" y="155" class="keyword">class</text>
  <text x="90" y="155" class="function">AIResearchAgent</text>
  <text x="210" y="155" class="normal">{</text>

  <!-- Line 7 -->
  <text x="20" y="180" class="line-number">7</text>
  <text x="70" y="180" class="keyword">constructor</text>
  <text x="150" y="180" class="normal">(</text>
  <text x="155" y="180" class="parameter">model</text>
  <text x="195" y="180" class="operator">=</text>
  <text x="210" y="180" class="string">'gpt-4'</text>
  <text x="260" y="180" class="normal">) {</text>

  <!-- Line 8 -->
  <text x="20" y="205" class="line-number">8</text>
  <text x="90" y="205" class="keyword">this</text>
  <text x="120" y="205" class="operator">.</text>
  <text x="130" y="205" class="property">llm</text>
  <text x="155" y="205" class="operator">=</text>
  <text x="170" y="205" class="keyword">new</text>
  <text x="200" y="205" class="variable">OpenAI</text>
  <text x="250" y="205" class="normal">({ </text>
  <text x="265" y="205" class="property">model</text>
  <text x="305" y="205" class="normal"> });</text>

  <!-- Line 9 -->
  <text x="20" y="230" class="line-number">9</text>
  <text x="90" y="230" class="keyword">this</text>
  <text x="120" y="230" class="operator">.</text>
  <text x="130" y="230" class="property">tools</text>
  <text x="170" y="230" class="operator">=</text>
  <text x="185" y="230" class="normal">[</text>
  <text x="195" y="230" class="variable">WebSearch</text>
  <text x="265" y="230" class="normal">, </text>
  <text x="275" y="230" class="variable">DataAnalysis</text>
  <text x="365" y="230" class="normal">];</text>

  <!-- Line 10 -->
  <text x="20" y="255" class="line-number">10</text>
  <text x="70" y="255" class="normal">}</text>

  <!-- Line 11 -->
  <text x="20" y="280" class="line-number">11</text>

  <!-- Line 12 -->
  <text x="20" y="305" class="line-number">12</text>
  <text x="70" y="305" class="keyword">async</text>
  <text x="110" y="305" class="function">runAgent</text>
  <text x="170" y="305" class="normal">(</text>
  <text x="175" y="305" class="parameter">query</text>
  <text x="215" y="305" class="normal">) {</text>

  <!-- Line 13 -->
  <text x="20" y="330" class="line-number">13</text>
  <text x="90" y="330" class="keyword">const</text>
  <text x="130" y="330" class="variable">executor</text>
  <text x="190" y="330" class="operator">=</text>
  <text x="205" y="330" class="keyword">new</text>
  <text x="235" y="330" class="variable">AgentExecutor</text>
  <text x="335" y="330" class="normal">({</text>

  <!-- Line 14 -->
  <text x="20" y="355" class="line-number">14</text>
  <text x="110" y="355" class="property">agent</text>
  <text x="150" y="355" class="operator">:</text>
  <text x="160" y="355" class="keyword">this</text>
  <text x="190" y="355" class="operator">.</text>
  <text x="200" y="355" class="property">llm</text>
  <text x="225" y="355" class="normal">,</text>
  <text x="235" y="355" class="property">tools</text>
  <text x="275" y="355" class="operator">:</text>
  <text x="285" y="355" class="keyword">this</text>
  <text x="315" y="355" class="operator">.</text>
  <text x="325" y="355" class="property">tools</text>

  <!-- Line 15 -->
  <text x="20" y="380" class="line-number">15</text>
  <text x="90" y="380" class="normal">});</text>
</svg>
