<?xml version="1.0" encoding="UTF-8"?>
<svg version="1.1" xmlns="http://www.w3.org/2000/svg" width="177" height="43">
<path d="M0 0 C5.94501577 -0.04584845 11.88942111 -0.08569247 17.83447266 -0.10986328 C19.85793127 -0.11993671 21.88137528 -0.13359595 23.90478516 -0.15087891 C26.80895589 -0.17506847 29.71293461 -0.18646949 32.6171875 -0.1953125 C33.52556366 -0.20563507 34.43393982 -0.21595764 35.36984253 -0.22659302 C36.21056305 -0.22674408 37.05128357 -0.22689514 37.91748047 -0.22705078 C39.03000687 -0.23371262 39.03000687 -0.23371262 40.16500854 -0.24050903 C42 -0 42 -0 44 2 C43.625 4.125 43.625 4.125 43 6 C41.35 6 39.7 6 38 6 C38 15.57 38 25.14 38 35 C25.46 35 12.92 35 0 35 C0 23.45 0 11.9 0 0 Z " fill="#E5732A" transform="translate(133,0)"/>
<path d="M0 0 C1.27230469 0.00902344 2.54460938 0.01804687 3.85546875 0.02734375 C5.31919922 0.04474609 5.31919922 0.04474609 6.8125 0.0625 C6.8125 1.7125 6.8125 3.3625 6.8125 5.0625 C5.8225 5.0625 4.8325 5.0625 3.8125 5.0625 C3.52375 6.17625 3.235 7.29 2.9375 8.4375 C1.8125 12.0625 1.8125 12.0625 -0.1875 14.0625 C-2.31640625 14.44140625 -2.31640625 14.44140625 -4.75 14.625 C-7.76797788 14.64699303 -7.76797788 14.64699303 -10.1875 16.0625 C-9.12789062 16.08828125 -8.06828125 16.1140625 -6.9765625 16.140625 C-5.58849999 16.1968978 -4.20048075 16.25424533 -2.8125 16.3125 C-1.76449219 16.33376953 -1.76449219 16.33376953 -0.6953125 16.35546875 C1.3359375 16.453125 1.3359375 16.453125 4.8125 17.0625 C6.84721447 19.6112476 6.82414573 20.78300247 6.6875 24.0625 C5.69038701 27.48117312 4.54007889 28.83084454 1.8125 31.0625 C-0.50027781 32.21888891 -1.98841221 32.26118928 -4.5625 32.3125 C-5.33335937 32.33828125 -6.10421875 32.3640625 -6.8984375 32.390625 C-9.92945991 31.95614397 -11.14406771 31.36826481 -13.1875 29.0625 C-13.54018912 26.38146488 -13.65827754 24.16412784 -13.5625 21.5 C-13.56121094 20.81486328 -13.55992188 20.12972656 -13.55859375 19.42382812 C-13.46885927 14.34385927 -13.46885927 14.34385927 -11.1875 12.0625 C-11.5175 11.7325 -11.8475 11.4025 -12.1875 11.0625 C-12.54647436 4.60096154 -12.54647436 4.60096154 -10.1875 1.0625 C-6.62704823 -0.12431726 -3.74941663 -0.03439832 0 0 Z M-6.1875 2.0625 C-7.39311184 3.04517859 -7.39311184 3.04517859 -7.28515625 4.91015625 C-7.27355469 5.64105469 -7.26195312 6.37195313 -7.25 7.125 C-7.229375 8.424375 -7.20875 9.72375 -7.1875 11.0625 C-5.24146726 11.65320014 -5.24146726 11.65320014 -3.1875 12.0625 C-1.98188816 11.07982141 -1.98188816 11.07982141 -2.08984375 9.21484375 C-2.10144531 8.48394531 -2.11304688 7.75304687 -2.125 7 C-2.145625 5.700625 -2.16625 4.40125 -2.1875 3.0625 C-4.13353274 2.47179986 -4.13353274 2.47179986 -6.1875 2.0625 Z M-9.1875 23.0625 C-9.35437448 25.47895782 -9.35437448 25.47895782 -9.1875 28.0625 C-8.5275 28.7225 -7.8675 29.3825 -7.1875 30.0625 C-1.60224098 30.03194821 -1.60224098 30.03194821 2.8125 27.125 C3.9579245 25.14458531 3.9579245 25.14458531 3.8125 23.0625 C-0.33220514 21.73619435 -5.21980578 21.07865289 -9.1875 23.0625 Z " fill="#FFFFFF" transform="translate(13.1875,10.9375)"/>
<path d="M0 0 C2.97 0 5.94 0 9 0 C9.33 0.66 9.66 1.32 10 2 C10.99 1.34 11.98 0.68 13 0 C17.07490752 -0.33957563 18.53001271 -0.31332486 22 2 C23.18681726 5.56045177 23.09689832 8.43808337 23.0625 12.1875 C23.05347656 13.45980469 23.04445313 14.73210938 23.03515625 16.04296875 C23.02355469 17.01878906 23.01195313 17.99460937 23 19 C23.99 19 24.98 19 26 19 C26 19.66 26 20.32 26 21 C21.71 21 17.42 21 13 21 C13 20.34 13 19.68 13 19 C13.99 19 14.98 19 16 19 C15.67 14.05 15.34 9.1 15 4 C13.68 4 12.36 4 11 4 C10.34 8.95 9.68 13.9 9 19 C9.99 19 10.98 19 12 19 C12 19.66 12 20.32 12 21 C8.04 21 4.08 21 0 21 C0 20.34 0 19.68 0 19 C0.99 19 1.98 19 3 19 C3 13.72 3 8.44 3 3 C2.01 3 1.02 3 0 3 C0 2.01 0 1.02 0 0 Z " fill="#FFFFFF" transform="translate(39,11)"/>
<path d="M0 0 C2.875 1.625 2.875 1.625 5 4 C5.33 5.98 5.66 7.96 6 10 C1.71 10 -2.58 10 -7 10 C-6.67 12.97 -6.34 15.94 -6 19 C-0.59212615 17.90213575 -0.59212615 17.90213575 3 14 C3.99 14.33 4.98 14.66 6 15 C3.25 19.875 3.25 19.875 1 21 C-2.05920574 21.42071592 -4.9467746 21.48514117 -8 21 C-10.75569447 18.81840855 -12.43588747 17.12822506 -14 14 C-14.17157511 10.20296813 -14.02377702 6.50291845 -11.83984375 3.296875 C-8.097654 -0.17587708 -4.92105518 -0.80526357 0 0 Z M-5 2 C-5.66 2.66 -6.32 3.32 -7 4 C-7 5.32 -7 6.64 -7 8 C-5.02 8 -3.04 8 -1 8 C-1 6.35 -1 4.7 -1 3 C-2.89179203 2.3185177 -2.89179203 2.3185177 -5 2 Z " fill="#FFFFFF" transform="translate(78,11)"/>
<path d="M0 0 C2.0625 1.75 2.0625 1.75 3 4 C3 5.65 3 7.3 3 9 C-0.96 9 -4.92 9 -9 9 C-8.67 11.64 -8.34 14.28 -8 17 C-5.12586875 17.33397787 -5.12586875 17.33397787 -2 17 C-0.22590192 15.07977297 -0.22590192 15.07977297 1 13 C1.66 13 2.32 13 3 13 C2.43313051 16.28784307 1.62303647 17.91785575 -1 20 C-4.97044814 20.86811493 -9.20156247 21.08622444 -12.765625 18.93359375 C-15.3393545 16.21934454 -16.3208076 13.56959208 -16.5 9.9375 C-16.00023489 6.00184972 -15.49880468 4.03426282 -13 1 C-8.6857253 -1.69757647 -4.7932837 -1.25279006 0 0 Z M-8 1 C-9.29633621 2.06645115 -9.29633621 2.06645115 -9.0625 4.5625 C-9.041875 5.366875 -9.02125 6.17125 -9 7 C-7.02 7 -5.04 7 -3 7 C-3.33 5.35 -3.66 3.7 -4 2 C-5.94603274 1.40929986 -5.94603274 1.40929986 -8 1 Z " fill="#FFFFFF" transform="translate(35,12)"/>
<path d="M0 0 C0.90105469 0.02707031 1.80210938 0.05414063 2.73046875 0.08203125 C3.76107422 0.13423828 3.76107422 0.13423828 4.8125 0.1875 C4.8125 2.4975 4.8125 4.8075 4.8125 7.1875 C1.8125 6.1875 1.8125 6.1875 -0.1875 3.1875 C-1.5075 3.5175 -2.8275 3.8475 -4.1875 4.1875 C-4.1875 4.8475 -4.1875 5.5075 -4.1875 6.1875 C-3.54941406 6.39246094 -2.91132812 6.59742188 -2.25390625 6.80859375 C-1.42761719 7.07800781 -0.60132812 7.34742188 0.25 7.625 C1.07371094 7.89183594 1.89742187 8.15867187 2.74609375 8.43359375 C4.8125 9.1875 4.8125 9.1875 5.8125 10.1875 C5.98046875 12.18359375 5.98046875 12.18359375 6 14.625 C6.01417969 15.42808594 6.02835938 16.23117188 6.04296875 17.05859375 C5.8125 19.1875 5.8125 19.1875 3.8125 21.1875 C0.7734375 21.3828125 0.7734375 21.3828125 -2.8125 21.3125 C-4.00101562 21.29445313 -5.18953125 21.27640625 -6.4140625 21.2578125 C-7.32929687 21.23460938 -8.24453125 21.21140625 -9.1875 21.1875 C-9.1875 18.5475 -9.1875 15.9075 -9.1875 13.1875 C-8.1975 13.1875 -7.2075 13.1875 -6.1875 13.1875 C-5.73375 14.0125 -5.28 14.8375 -4.8125 15.6875 C-4.27625 16.5125 -3.74 17.3375 -3.1875 18.1875 C-0.56055578 18.60530879 -0.56055578 18.60530879 1.8125 18.1875 C1.8125 17.1975 1.8125 16.2075 1.8125 15.1875 C1.17441406 14.98253906 0.53632812 14.77757812 -0.12109375 14.56640625 C-0.94738281 14.29699219 -1.77367188 14.02757812 -2.625 13.75 C-3.44871094 13.48316406 -4.27242188 13.21632813 -5.12109375 12.94140625 C-7.1875 12.1875 -7.1875 12.1875 -8.1875 11.1875 C-8.65904314 3.87858126 -8.65904314 3.87858126 -6.99609375 1.44140625 C-4.55806202 -0.24889221 -2.9366119 -0.11441345 0 0 Z " fill="#FFFFFF" transform="translate(94.1875,10.8125)"/>
<path d="M0 0 C0 2.31 0 4.62 0 7 C-0.66 7 -1.32 7 -2 7 C-3.625 5 -3.625 5 -5 3 C-6.97536745 3.34786708 -6.97536745 3.34786708 -9 4 C-9.33 4.66 -9.66 5.32 -10 6 C-9.37351562 6.13277344 -8.74703125 6.26554687 -8.1015625 6.40234375 C-7.28429687 6.57894531 -6.46703125 6.75554688 -5.625 6.9375 C-4.81289062 7.11152344 -4.00078125 7.28554688 -3.1640625 7.46484375 C-1 8 -1 8 1 9 C2.49138874 15.99805487 2.49138874 15.99805487 0.8984375 19.24609375 C-1 21 -1 21 -3.91796875 21.390625 C-4.99691406 21.34421875 -6.07585937 21.2978125 -7.1875 21.25 C-8.27417969 21.21390625 -9.36085938 21.1778125 -10.48046875 21.140625 C-11.72763672 21.07101563 -11.72763672 21.07101563 -13 21 C-13 18.36 -13 15.72 -13 13 C-12.34 13 -11.68 13 -11 13 C-10.566875 13.825 -10.13375 14.65 -9.6875 15.5 C-9.130625 16.325 -8.57375 17.15 -8 18 C-5.37305578 18.41780879 -5.37305578 18.41780879 -3 18 C-2.67 16.68 -2.34 15.36 -2 14 C-3.8871875 13.8453125 -3.8871875 13.8453125 -5.8125 13.6875 C-8.27135361 13.3611035 -9.82493061 13.09847653 -12 11.875 C-13.63486492 8.80962827 -13.42383837 6.39070692 -13 3 C-9.85876736 -1.2338353 -4.77474809 -0.27546624 0 0 Z " fill="#FFFFFF" transform="translate(128,11)"/>
<path d="M0 0 C4.10421495 4.21513967 5.16460402 7.04115525 5.25 12.8125 C5.27578125 13.85019531 5.3015625 14.88789063 5.328125 15.95703125 C4.95408344 19.42582145 4.07568054 21.22110993 2 24 C1.01 24.66 0.02 25.32 -1 26 C-1.99 25.67 -2.98 25.34 -4 25 C-3.01 24.34 -2.02 23.68 -1 23 C-0.58390728 20.67699616 -0.58390728 20.67699616 -0.70703125 17.9921875 C-0.71669922 17.00605469 -0.72636719 16.01992188 -0.73632812 15.00390625 C-0.76146484 13.97136719 -0.78660156 12.93882813 -0.8125 11.875 C-0.82603516 10.83472656 -0.83957031 9.79445313 -0.85351562 8.72265625 C-0.88894772 6.14792373 -0.93834779 3.5742167 -1 1 C-2.65 1.66 -4.3 2.32 -6 3 C-6.02903577 6.10414702 -6.0468107 9.20825909 -6.0625 12.3125 C-6.07087891 13.19357422 -6.07925781 14.07464844 -6.08789062 14.98242188 C-6.09272461 16.25375977 -6.09272461 16.25375977 -6.09765625 17.55078125 C-6.10289307 18.33106689 -6.10812988 19.11135254 -6.11352539 19.9152832 C-6.08137863 22.1961555 -6.08137863 22.1961555 -5 25 C-8.34676814 23.96134782 -9.02532602 22.95387047 -10.75 19.8125 C-12.63049957 14.83227585 -12.69682223 10.72546458 -10.6875 5.75 C-7.67526881 0.84117881 -6.08822204 -0.99399543 0 0 Z " fill="#FBECE2" transform="translate(161,5)"/>
<path d="M0 0 C3.3 0 6.6 0 10 0 C10 6.27 10 12.54 10 19 C10.99 19 11.98 19 13 19 C13 19.66 13 20.32 13 21 C8.71 21 4.42 21 0 21 C0 20.34 0 19.68 0 19 C0.99 19 1.98 19 3 19 C3 13.72 3 8.44 3 3 C2.01 3 1.02 3 0 3 C0 2.01 0 1.02 0 0 Z " fill="#FFFFFF" transform="translate(101,11)"/>
<path d="M0 0 C1.32 0 2.64 0 4 0 C5.19219354 2.38438709 5.12916022 3.87656002 5.1328125 6.53515625 C5.13410156 7.42654297 5.13539063 8.31792969 5.13671875 9.23632812 C5.13285156 10.16896484 5.12898437 11.10160156 5.125 12.0625 C5.12886719 12.99900391 5.13273438 13.93550781 5.13671875 14.90039062 C5.13542969 15.79048828 5.13414062 16.68058594 5.1328125 17.59765625 C5.13168457 18.41758057 5.13055664 19.23750488 5.12939453 20.08227539 C5 22 5 22 4 23 C2.33382885 23.04063832 0.66611905 23.042721 -1 23 C-2.7680198 19.4639604 -2.18464913 15.39428745 -2.1875 11.5 C-2.20586914 10.17935547 -2.20586914 10.17935547 -2.22460938 8.83203125 C-2.22654297 7.99027344 -2.22847656 7.14851562 -2.23046875 6.28125 C-2.23457764 5.50845703 -2.23868652 4.73566406 -2.24291992 3.93945312 C-2 2 -2 2 0 0 Z " fill="#E5742B" transform="translate(156,6)"/>
<path d="M0 0 C2.97 0 5.94 0 9 0 C9 7.92 9 15.84 9 24 C10.32 24.33 11.64 24.66 13 25 C8.71 25 4.42 25 0 25 C0 24.67 0 24.34 0 24 C1.65 24 3.3 24 5 24 C4.67 16.74 4.34 9.48 4 2 C2.68 1.34 1.36 0.68 0 0 Z " fill="#FDF8F5" transform="translate(137,5)"/>
<path d="M0 0 C1.16666045 2.3333209 1.10175781 3.65262496 1.0625 6.24609375 C1.05476562 7.08333984 1.04703125 7.92058594 1.0390625 8.78320312 C1.01307831 10.54882897 0.9870369 12.31445398 0.9609375 14.08007812 C0.95320312 14.91861328 0.94546875 15.75714844 0.9375 16.62109375 C0.92589844 17.3886499 0.91429687 18.15620605 0.90234375 18.94702148 C0.91671845 21.20147956 0.91671845 21.20147956 2 24 C-1.34676814 22.96134782 -2.02532602 21.95387047 -3.75 18.8125 C-5.64637316 13.79023703 -5.69972556 9.6857025 -3.625 4.6875 C-2 2 -2 2 0 0 Z " fill="#FDF6F1" transform="translate(154,6)"/>
<path d="M0 0 C1.65 0 3.3 0 5 0 C5.625 1.875 5.625 1.875 6 4 C5.34 4.66 4.68 5.32 4 6 C1.375 5.625 1.375 5.625 -1 5 C-0.67 3.35 -0.34 1.7 0 0 Z " fill="#FFFFFF" transform="translate(105,1)"/>
</svg>
