<?xml version="1.0" encoding="UTF-8"?>
<svg width="100" height="100" viewBox="0 0 100 100" xmlns="http://www.w3.org/2000/svg">
  <defs>
    <pattern id="grid" width="20" height="20" patternUnits="userSpaceOnUse">
      <path d="M 20 0 L 0 0 0 20" fill="none" stroke="rgba(147, 51, 234, 0.3)" stroke-width="0.5"/>
    </pattern>
    <pattern id="diagonal-lines" width="10" height="10" patternUnits="userSpaceOnUse" patternTransform="rotate(45)">
      <line x1="0" y1="0" x2="0" y2="10" stroke="rgba(79, 70, 229, 0.2)" stroke-width="0.5"/>
    </pattern>
    <pattern id="dots" width="20" height="20" patternUnits="userSpaceOnUse">
      <circle cx="10" cy="10" r="1" fill="rgba(168, 85, 247, 0.4)"/>
    </pattern>
    <pattern id="circuit" width="100" height="100" patternUnits="userSpaceOnUse">
      <path d="M10,30 L30,30 L30,10 M70,10 L70,30 L90,30 M90,70 L70,70 L70,90 M30,90 L30,70 L10,70" 
            fill="none" stroke="rgba(99, 102, 241, 0.3)" stroke-width="1"/>
      <circle cx="30" cy="30" r="2" fill="rgba(168, 85, 247, 0.5)"/>
      <circle cx="70" cy="30" r="2" fill="rgba(168, 85, 247, 0.5)"/>
      <circle cx="30" cy="70" r="2" fill="rgba(168, 85, 247, 0.5)"/>
      <circle cx="70" cy="70" r="2" fill="rgba(168, 85, 247, 0.5)"/>
    </pattern>
  </defs>
  <rect width="100" height="100" fill="url(#grid)"/>
  <rect width="100" height="100" fill="url(#diagonal-lines)"/>
  <rect width="100" height="100" fill="url(#dots)"/>
  <rect width="100" height="100" fill="url(#circuit)"/>
</svg>
